<svg width="103" height="202" viewBox="0 0 103 202" fill="rgb(0,0,255)" xmlns="http://www.w3.org/2000/svg">
<path d="M66.1213 0C72.7148 21.0432 79.0103 41.1993 85.3431 61.3062C90.4465 77.5691 95.0657 94.1276 100.84 109.947C106.614 125.766 95.9226 145.528 85.3059 149.027C83.8153 149.736 82.2141 149.938 80.6492 149.615C79.0843 149.292 77.6057 148.454 76.349 147.179C75.0922 145.904 74.0975 144.232 73.4561 142.316C72.8147 140.4 72.5469 138.302 72.6776 136.214C72.2306 122.07 80.5749 109.947 94.358 105.512C88.2115 85.7991 82.1395 66.5793 75.7322 46.1275C56.734 62.2425 38.4808 77.6676 20.2276 93.5855C18.9983 94.6697 18.9238 100.091 19.706 102.752C25.5918 122.464 31.8872 142.177 37.9592 161.89C39.2107 165.517 39.8706 169.452 39.8958 173.439C39.921 177.426 39.311 181.376 38.1055 185.03C36.9001 188.684 35.1263 191.962 32.8996 194.649C30.6729 197.336 28.0432 199.372 25.182 200.625C23.3718 201.531 21.434 201.903 19.5038 201.716C17.5736 201.529 15.6975 200.786 14.0066 199.541C12.6922 197.529 11.7168 195.17 11.1452 192.621C10.5735 190.072 10.4188 187.391 10.6913 184.756C12.8146 170.415 20.1159 161.791 31.7383 158.736L0 58.1522L66.1213 0ZM13.7458 83.3842L71.5228 32.7229L68.0212 22.0781L9.75997 71.3596C11.1755 75.7456 12.3302 79.2446 13.7458 83.3842Z" fill="#263238"/>
</svg>
