<svg width="85" height="172" viewBox="0 0 85 172" fill="none" xmlns="http://www.w3.org/2000/svg">
<path d="M63.1165 0C63.787 3.05545 65.3888 6.35729 64.9418 9.06777C62.9302 20.8953 66.2456 30.5053 70.7903 40.0659C74.9645 48.3197 78.6987 56.9484 81.9657 65.8893C87.7769 83.3349 85.0203 99.4007 74.9625 114.136C88.7455 83.4828 77.7563 63.0803 59.2423 45.1418C58.6382 46.9838 58.128 48.8771 57.715 50.8092C52.4998 82.2508 47.3591 113.742 42.1067 145.183C41.377 149.723 39.9413 154.012 37.891 157.779C35.8407 161.545 33.2206 164.706 30.1972 167.06C27.1738 169.415 23.8132 170.911 20.329 171.455C16.8448 171.999 13.3132 171.577 9.95869 170.218C-0.732472 166.029 -3.41459 152.773 4.85523 142.719C14.2426 131.286 25.2318 129.61 37.7483 136.115C45.1986 90.875 52.6488 45.8482 60.0991 1.03494L63.1165 0Z" fill="#263238"/>
</svg>
