<svg width="65" height="172" viewBox="0 0 65 172" fill="none" xmlns="http://www.w3.org/2000/svg">
<path d="M59.1866 45.6839L64.3645 14.0452C64.4648 12.3904 64.639 10.7448 64.8861 9.1171C65.3703 6.40662 63.7313 3.05545 63.098 0L60.0807 1.13353C52.6304 46.0782 45.1801 90.9736 37.7298 136.214C25.2506 129.709 14.2241 131.286 4.83676 142.818C-3.39581 152.674 -0.750939 166.177 9.97748 170.317C13.3317 171.692 16.8659 172.127 20.3543 171.594C23.8428 171.061 27.2089 169.571 30.2377 167.22C33.2664 164.868 35.8912 161.707 37.9445 157.939C39.9978 154.17 41.4345 149.876 42.1627 145.331C47.3779 113.89 52.5186 82.3987 57.7338 50.9571C58.1268 49.1577 58.6122 47.3959 59.1866 45.6839Z" fill="#263238"/>
</svg>
