<svg width="1052" height="215" viewBox="0 0 1052 215" fill="none" xmlns="http://www.w3.org/2000/svg">
<path d="M900.752 0.938501C903.199 0.884742 905.662 0.884742 908.109 0.938501C915.161 0.964725 922.192 1.12994 929.126 1.43243C957.036 2.63194 982.875 5.70244 1003.53 10.274C1018.59 13.6043 1030.6 17.6211 1038.84 22.0792C1048.18 27.429 1052.41 33.1957 1051.24 38.972C1051.24 51.2712 1051.24 65.2497 1051.24 80.8089C1051.24 96.368 1051.24 113.458 1051.24 131.882C1051.24 136.525 1051.24 141.119 1051.24 146.059C1049.72 151.057 1043.7 155.922 1033.58 160.333C1022.84 164.994 1007.85 169.04 989.685 172.182C971.519 175.325 950.625 177.485 928.496 178.51C905.871 179.248 883.006 179.496 860.189 179.251H344.207L347.569 178.955L177.957 212.098L167.869 214.074L169.13 210.962C171.231 205.578 173.543 199.75 175.855 193.921C178.167 188.093 180.269 182.956 182.371 177.868L187.836 179.251C172.913 179.251 158.621 179.251 143.068 179.251C127.871 179.043 112.907 178.277 98.7205 176.979C70.4495 174.418 45.9783 169.971 28.312 164.186C11.0056 158.47 1.21292 151.686 0.147862 144.675C0.147862 137.908 0.147862 131.388 0.147862 124.918C0.147862 98.7389 0.147862 73.4985 0.147862 49.4929C0.147862 46.4799 0.147862 43.5162 0.147862 40.5526C-0.231648 37.5702 0.11961 34.5852 1.19913 31.6123C4.3708 25.6906 13.6811 20.0424 28.312 15.164C42.3731 10.5157 60.9249 6.71758 82.4448 4.08152C103.965 1.44546 127.839 0.0466569 152.105 0H404.317L767.921 0.395162H866.494H892.135C895.071 0.330189 898.027 0.330189 900.963 0.395162C898.027 0.460135 895.071 0.460135 892.135 0.395162H866.494H767.921L404.317 0.790325H152.105C117.309 0.89279 83.8437 3.94947 57.8853 9.39639C31.927 14.8433 15.2269 22.3129 10.867 30.4268C8.76529 36.0084 10.867 42.1332 10.867 48.0605C10.867 72.0661 10.867 97.4547 10.867 123.485C10.867 130.005 10.867 136.674 10.867 143.243C11.8956 149.812 21.1629 156.163 37.5047 161.497C53.8465 166.832 76.5334 170.912 102.714 173.225C129.948 175.714 159.053 176.874 188.256 176.633H194.141V178.066C192.039 183.005 189.937 188.636 187.625 194.119C185.313 199.602 183.002 205.776 180.69 211.16L171.862 210.073L341.684 176.979L343.155 176.683H863.552C885.727 176.923 907.95 176.709 929.967 176.041C950.574 175.04 970.016 173.003 986.959 170.07C1003.9 167.137 1017.94 163.378 1028.12 159.049C1037.66 154.896 1043.39 150.319 1044.93 145.614C1046.19 140.971 1044.93 136.18 1044.93 131.586C1044.93 113.162 1044.93 96.0716 1044.93 80.5124C1044.93 64.9533 1044.93 50.876 1044.93 38.6757C1046.29 33.0568 1042.56 27.4342 1034 22.178C1024.73 17.026 1010.36 12.469 992.082 8.88633C973.803 5.30363 952.146 2.79888 928.916 1.58061C910.841 0.938487 900.542 1.13608 900.752 0.938501Z" fill="#263238"/>
</svg>
